<svg class="z-0 lg:absolute pin-r pin-b w-1/2 lg:opacity-25 xl:opacity-100 lg:w-auto" width="600px" height="385" viewBox="0 0 398 257" version="1.1" xmlns="http://www.w3.org/2000/svg" xmlns:xlink="http://www.w3.org/1999/xlink">
    <!-- Generator: Sketch 53.2 (72643) - https://sketchapp.com -->
    <title>monitor-window</title>
    <desc>Created with Sketch.</desc>
    <g id="Page-1" stroke="none" stroke-width="1" fill="none" fill-rule="evenodd">
        <g id="monitor-window" transform="translate(1.000000, 1.000000)">
            <path d="M20.7272727,201.954545 L375.272727,201.954545" id="Path" stroke="#282828" stroke-width="2" stroke-linecap="round" stroke-linejoin="round"></path>
            <path d="M0.272727273,201.954545 L11.6363636,201.954545" id="Path" stroke="#282828" stroke-width="2" stroke-linecap="round" stroke-linejoin="round"></path>
            <path d="M384.363636,201.954545 L395.727273,201.954545" id="Path" stroke="#282828" stroke-width="2" stroke-linecap="round" stroke-linejoin="round"></path>
            <path d="M81.8272727,60.4090909 L294.172727,60.4090909 C296.160952,60.4090909 297.772727,62.0208658 297.772727,64.0090909 L297.772727,189.809091 C297.772727,191.797316 296.160952,193.409091 294.172727,193.409091 L81.8272727,193.409091 C79.8390476,193.409091 78.2272727,191.797316 78.2272727,189.809091 L78.2272727,128.686189 L78.2272727,64.0090909 C78.2272727,62.0208658 79.8390476,60.4090909 81.8272727,60.4090909 Z" id="Rectangle" fill="#F5DDDC" fill-rule="nonzero"></path>
            <path d="M211,60.4090909 L97.0454545,60.4090909 C93.717068,60.4090909 87.4443407,60.4090909 78.2272727,60.4090909 C78.2272727,69.3542688 78.2272727,75.6269961 78.2272727,79.2272727 L78.2272727,193.181818 L211,60.4090909 Z" id="Path" fill="#FFFFFF" fill-rule="nonzero"></path>
            <rect id="Rectangle" stroke="#282828" stroke-width="2" stroke-linecap="round" stroke-linejoin="round" x="78.2272727" y="60.4090909" width="219.545455" height="133" rx="3.6"></rect>
            <path d="M278.954545,217.227273 C283.984699,217.288028 288.829771,215.332257 292.408173,211.796557 C295.986575,208.260857 298.000367,203.439611 298,198.409091 L298,192.136364 L78.2272727,192.136364 L78.2272727,198.409091 C78.2272727,208.802086 86.6524597,217.227273 97.0454545,217.227273 L278.954545,217.227273 Z" id="Path" stroke="#282828" stroke-width="2" fill="#FFFFFF" fill-rule="nonzero" stroke-linecap="round" stroke-linejoin="round"></path>
            <polygon id="Path" fill="#FFFFFF" fill-rule="nonzero" points="206.818182 242.318182 169.181818 242.318182 172.318182 217.227273 203.681818 217.227273"></polygon>
            <polygon id="Path" stroke="#282828" stroke-width="2" stroke-linecap="round" stroke-linejoin="round" points="206.818182 242.318182 169.181818 242.318182 172.318182 217.227273 203.681818 217.227273"></polygon>
            <path d="M228.772727,254.863636 L147.227273,254.863636 C147.227273,247.934973 152.844064,242.318182 159.772727,242.318182 L216.181818,242.318182 C223.117873,242.318137 228.747687,247.927627 228.772727,254.863636 L228.772727,254.863636 Z" id="Path" stroke="#282828" stroke-width="2" fill="#FFFFFF" fill-rule="nonzero" stroke-linecap="round" stroke-linejoin="round"></path>
            <path d="M128.409091,38.4545455 L310.227273,38.4545455 L310.227273,146.727273 C310.227273,152.752197 305.343106,157.636364 299.318182,157.636364 L139.318182,157.636364 C133.293257,157.636364 128.409091,152.752197 128.409091,146.727273 L128.409091,38.4545455 Z" id="Path" stroke="#282828" stroke-width="2" fill="#FFFFFF" fill-rule="nonzero" stroke-linecap="round" stroke-linejoin="round"></path>
            <path d="M139.318182,0.818181818 L299.409091,0.818181818 C305.434015,0.818181818 310.318182,5.70234818 310.318182,11.7272727 L310.318182,38.4545455 L128.5,38.4545455 L128.5,11.7272727 C128.499792,5.73767257 133.32879,0.868095149 139.318182,0.818181818 Z" id="Path" stroke="#282828" stroke-width="2" fill="#FFFFFF" fill-rule="nonzero" stroke-linecap="round" stroke-linejoin="round"></path>
            <circle id="Oval" stroke="#282828" stroke-width="2" fill="#F5DDDC" fill-rule="nonzero" stroke-linecap="round" stroke-linejoin="round" cx="147.227273" cy="19.6363636" r="6.27272727"></circle>
            <circle id="Oval" stroke="#282828" stroke-width="2" fill="#F5DDDC" fill-rule="nonzero" stroke-linecap="round" stroke-linejoin="round" cx="172.318182" cy="19.6363636" r="6.27272727"></circle>
            <circle id="Oval" stroke="#282828" stroke-width="2" fill="#F5DDDC" fill-rule="nonzero" stroke-linecap="round" stroke-linejoin="round" cx="197.409091" cy="19.6363636" r="6.27272727"></circle>
            <rect id="Rectangle" stroke="#282828" stroke-width="2" fill="#F5DDDC" fill-rule="nonzero" stroke-linecap="round" stroke-linejoin="round" x="184.863636" y="76.0909091" width="25.0909091" height="25.0909091" rx="1"></rect>
            <rect id="Rectangle" stroke="#282828" stroke-width="2" fill="#F5DDDC" fill-rule="nonzero" stroke-linecap="round" stroke-linejoin="round" x="225.636364" y="76.0909091" width="25.0909091" height="25.0909091" rx="1"></rect>
            <rect id="Rectangle" stroke="#282828" stroke-width="2" fill="#F5DDDC" fill-rule="nonzero" stroke-linecap="round" stroke-linejoin="round" x="266.409091" y="76.0909091" width="25.0909091" height="25.0909091" rx="1"></rect>
            <rect id="Rectangle" stroke="#282828" stroke-width="2" fill="#F5DDDC" fill-rule="nonzero" stroke-linecap="round" stroke-linejoin="round" x="184.863636" y="113.727273" width="25.0909091" height="25.0909091" rx="1"></rect>
            <rect id="Rectangle" stroke="#282828" stroke-width="2" fill="#F5DDDC" fill-rule="nonzero" stroke-linecap="round" stroke-linejoin="round" x="225.636364" y="113.727273" width="25.0909091" height="25.0909091" rx="1"></rect>
            <rect id="Rectangle" stroke="#282828" stroke-width="2" fill="#F5DDDC" fill-rule="nonzero" stroke-linecap="round" stroke-linejoin="round" x="266.409091" y="113.727273" width="25.0909091" height="25.0909091" rx="1"></rect>
            <rect id="Rectangle" stroke="#282828" stroke-width="2" fill="#F5DDDC" fill-rule="nonzero" stroke-linecap="round" stroke-linejoin="round" x="147.227273" y="51" width="25.0909091" height="12.5454545" rx="1"></rect>
            <rect id="Rectangle" stroke="#282828" stroke-width="2" fill="#F5DDDC" fill-rule="nonzero" stroke-linejoin="round" x="184.863636" y="51" width="106.636364" height="12.5454545" rx="1"></rect>
            <path d="M147.227273,76.0909091 L172.318182,76.0909091" id="Path" stroke="#282828" stroke-width="2" stroke-linecap="round" stroke-linejoin="round"></path>
            <path d="M147.227273,88.6363636 L172.318182,88.6363636" id="Path" stroke="#282828" stroke-width="2" stroke-linecap="round" stroke-linejoin="round"></path>
            <path d="M147.227273,101.181818 L172.318182,101.181818" id="Path" stroke="#282828" stroke-width="2" stroke-linecap="round" stroke-linejoin="round"></path>
            <path d="M147.227273,113.727273 L172.318182,113.727273" id="Path" stroke="#282828" stroke-width="2" stroke-linecap="round" stroke-linejoin="round"></path>
            <path d="M147.227273,126.272727 L172.318182,126.272727" id="Path" stroke="#282828" stroke-width="2" stroke-linecap="round" stroke-linejoin="round"></path>
            <path d="M147.227273,138.818182 L162.909091,138.818182" id="Path" stroke="#282828" stroke-width="2" stroke-linecap="round" stroke-linejoin="round"></path>
            <path d="M351.090909,207.5 C350.181818,210.818182 348.363636,210.909091 347.045455,207.5 L326.454545,158.363636 C325.136364,155.181818 326.454545,153.818182 329.863636,155 L379.227273,175.545455 C382.409091,176.909091 382.272727,178.727273 378.954545,179.636364 L363.136364,184.181818 C359.502812,185.396001 356.64469,188.237311 355.409091,191.863636 L351.090909,207.5 Z" id="Path" stroke="#282828" stroke-width="2" fill="#FFFFFF" fill-rule="nonzero" stroke-linejoin="round"></path>
            <circle id="Oval" stroke="#282828" stroke-width="2" stroke-linecap="round" stroke-linejoin="round" cx="188" cy="204.681818" r="2.63636364"></circle>
        </g>
    </g>
</svg>